<mxfile host="Electron" modified="2023-04-02T15:08:35.082Z" agent="Mozilla/5.0 (X11; Linux x86_64) AppleWebKit/537.36 (KHTML, like Gecko) draw.io/21.1.2 Chrome/106.0.5249.199 Electron/21.4.3 Safari/537.36" etag="hZuAXXRfFHMJiwozAlL4" version="21.1.2" type="device">
  <diagram name="Страница 1" id="o9PoDSkGrOwWc7dXm-Xy">
    <mxGraphModel dx="2575" dy="1297" grid="1" gridSize="10" guides="1" tooltips="1" connect="1" arrows="1" fold="1" page="1" pageScale="1" pageWidth="827" pageHeight="1169" math="0" shadow="0">
      <root>
        <mxCell id="0" />
        <mxCell id="1" parent="0" />
        <mxCell id="FQmF5h1PEEif77fkFtKV-154" value="" style="rounded=0;whiteSpace=wrap;html=1;fontFamily=Helvetica;fontSize=11;fontColor=default;" vertex="1" parent="1">
          <mxGeometry x="250" y="210" width="1130" height="1110" as="geometry" />
        </mxCell>
        <mxCell id="FQmF5h1PEEif77fkFtKV-3" value="" style="edgeStyle=orthogonalEdgeStyle;rounded=0;orthogonalLoop=1;jettySize=auto;html=1;" edge="1" parent="1" target="FQmF5h1PEEif77fkFtKV-2">
          <mxGeometry relative="1" as="geometry">
            <mxPoint x="390" y="90" as="sourcePoint" />
          </mxGeometry>
        </mxCell>
        <mxCell id="FQmF5h1PEEif77fkFtKV-9" value="" style="edgeStyle=orthogonalEdgeStyle;rounded=0;orthogonalLoop=1;jettySize=auto;html=1;" edge="1" parent="1" target="FQmF5h1PEEif77fkFtKV-8">
          <mxGeometry relative="1" as="geometry">
            <mxPoint x="510" y="90" as="sourcePoint" />
          </mxGeometry>
        </mxCell>
        <mxCell id="FQmF5h1PEEif77fkFtKV-11" value="" style="edgeStyle=orthogonalEdgeStyle;rounded=0;orthogonalLoop=1;jettySize=auto;html=1;" edge="1" parent="1" source="FQmF5h1PEEif77fkFtKV-1">
          <mxGeometry relative="1" as="geometry">
            <mxPoint x="450" y="220" as="targetPoint" />
          </mxGeometry>
        </mxCell>
        <mxCell id="FQmF5h1PEEif77fkFtKV-5" value="" style="edgeStyle=orthogonalEdgeStyle;rounded=0;orthogonalLoop=1;jettySize=auto;html=1;" edge="1" parent="1" target="FQmF5h1PEEif77fkFtKV-4">
          <mxGeometry relative="1" as="geometry">
            <mxPoint x="80" y="130" as="sourcePoint" />
          </mxGeometry>
        </mxCell>
        <mxCell id="FQmF5h1PEEif77fkFtKV-7" style="edgeStyle=orthogonalEdgeStyle;rounded=0;orthogonalLoop=1;jettySize=auto;html=1;entryX=0.5;entryY=0;entryDx=0;entryDy=0;" edge="1" parent="1" target="FQmF5h1PEEif77fkFtKV-6">
          <mxGeometry relative="1" as="geometry">
            <mxPoint x="80" y="130" as="sourcePoint" />
          </mxGeometry>
        </mxCell>
        <mxCell id="FQmF5h1PEEif77fkFtKV-12" value="Зарегестрированный &lt;br&gt;пользоавтель" style="shape=umlActor;verticalLabelPosition=bottom;verticalAlign=top;html=1;outlineConnect=0;direction=east;" vertex="1" parent="1">
          <mxGeometry x="130" y="820" width="100" height="200" as="geometry" />
        </mxCell>
        <mxCell id="FQmF5h1PEEif77fkFtKV-21" value="Перевести деньги&lt;br&gt;с одного банковского счета на другой" style="ellipse;whiteSpace=wrap;html=1;" vertex="1" parent="1">
          <mxGeometry x="750.0000000000001" y="1070" width="138.13" height="60" as="geometry" />
        </mxCell>
        <mxCell id="FQmF5h1PEEif77fkFtKV-67" style="edgeStyle=orthogonalEdgeStyle;rounded=0;orthogonalLoop=1;jettySize=auto;html=1;exitX=0.5;exitY=1;exitDx=0;exitDy=0;" edge="1" parent="1">
          <mxGeometry relative="1" as="geometry">
            <mxPoint x="683.7499999999998" y="932" as="sourcePoint" />
            <mxPoint x="683.7499999999998" y="932" as="targetPoint" />
          </mxGeometry>
        </mxCell>
        <mxCell id="FQmF5h1PEEif77fkFtKV-69" value="Банковский клиент(приложение)" style="text;html=1;strokeColor=#1A1A1A;fillColor=none;align=center;verticalAlign=middle;whiteSpace=wrap;rounded=0;" vertex="1" parent="1">
          <mxGeometry x="704.06" y="180" width="230" height="30" as="geometry" />
        </mxCell>
        <mxCell id="FQmF5h1PEEif77fkFtKV-76" value="Незарегистрированный &lt;br&gt;пользователь" style="shape=umlActor;verticalLabelPosition=bottom;verticalAlign=top;html=1;outlineConnect=0;" vertex="1" parent="1">
          <mxGeometry x="127.5" y="560" width="105" height="200" as="geometry" />
        </mxCell>
        <mxCell id="FQmF5h1PEEif77fkFtKV-77" value="Авторизоваться в &lt;br&gt;системе банка&lt;br&gt;(войти в свой аккаунт)" style="ellipse;whiteSpace=wrap;html=1;" vertex="1" parent="1">
          <mxGeometry x="326.25" y="885" width="153.75" height="70" as="geometry" />
        </mxCell>
        <mxCell id="FQmF5h1PEEif77fkFtKV-78" value="Создать аккаунт" style="ellipse;whiteSpace=wrap;html=1;" vertex="1" parent="1">
          <mxGeometry x="326.25" y="410" width="150" height="70" as="geometry" />
        </mxCell>
        <mxCell id="FQmF5h1PEEif77fkFtKV-79" value="Банк" style="shape=umlActor;verticalLabelPosition=bottom;verticalAlign=top;html=1;outlineConnect=0;direction=east;" vertex="1" parent="1">
          <mxGeometry x="1480" y="620" width="160" height="350" as="geometry" />
        </mxCell>
        <mxCell id="FQmF5h1PEEif77fkFtKV-88" value="" style="endArrow=none;html=1;rounded=0;entryX=0;entryY=0.5;entryDx=0;entryDy=0;exitX=0.5;exitY=0.5;exitDx=0;exitDy=0;exitPerimeter=0;" edge="1" parent="1" source="FQmF5h1PEEif77fkFtKV-76" target="FQmF5h1PEEif77fkFtKV-78">
          <mxGeometry width="50" height="50" relative="1" as="geometry">
            <mxPoint x="240" y="730" as="sourcePoint" />
            <mxPoint x="444" y="410" as="targetPoint" />
            <Array as="points">
              <mxPoint x="300" y="620" />
              <mxPoint x="300" y="445" />
            </Array>
          </mxGeometry>
        </mxCell>
        <mxCell id="FQmF5h1PEEif77fkFtKV-91" value="" style="endArrow=none;html=1;rounded=0;exitX=0.5;exitY=0.5;exitDx=0;exitDy=0;entryX=0;entryY=0.5;entryDx=0;entryDy=0;exitPerimeter=0;" edge="1" parent="1" source="FQmF5h1PEEif77fkFtKV-12" target="FQmF5h1PEEif77fkFtKV-77">
          <mxGeometry width="50" height="50" relative="1" as="geometry">
            <mxPoint x="190" y="930" as="sourcePoint" />
            <mxPoint x="489" y="690" as="targetPoint" />
            <Array as="points" />
          </mxGeometry>
        </mxCell>
        <mxCell id="FQmF5h1PEEif77fkFtKV-92" value="&amp;lt;&amp;lt;include&amp;gt;&amp;gt;" style="endArrow=none;dashed=1;html=1;dashPattern=1 3;strokeWidth=2;rounded=0;entryX=0;entryY=0.5;entryDx=0;entryDy=0;exitX=1;exitY=0.5;exitDx=0;exitDy=0;" edge="1" parent="1" source="FQmF5h1PEEif77fkFtKV-78" target="FQmF5h1PEEif77fkFtKV-93">
          <mxGeometry x="0.1421" y="22" width="50" height="50" relative="1" as="geometry">
            <mxPoint x="520" y="470" as="sourcePoint" />
            <mxPoint x="570" y="420" as="targetPoint" />
            <mxPoint as="offset" />
          </mxGeometry>
        </mxCell>
        <mxCell id="FQmF5h1PEEif77fkFtKV-93" value="Ввести данные паспорта" style="ellipse;whiteSpace=wrap;html=1;" vertex="1" parent="1">
          <mxGeometry x="623.75" y="340" width="120" height="50" as="geometry" />
        </mxCell>
        <mxCell id="FQmF5h1PEEif77fkFtKV-94" value="&lt;span style=&quot;color: rgb(0, 0, 0); font-family: Helvetica; font-size: 11px; font-style: normal; font-variant-ligatures: normal; font-variant-caps: normal; font-weight: 400; letter-spacing: normal; orphans: 2; text-align: center; text-indent: 0px; text-transform: none; widows: 2; word-spacing: 0px; -webkit-text-stroke-width: 0px; background-color: rgb(255, 255, 255); text-decoration-thickness: initial; text-decoration-style: initial; text-decoration-color: initial; float: none; display: inline !important;&quot;&gt;&amp;lt;&amp;lt;include&amp;gt;&amp;gt;&lt;/span&gt;" style="endArrow=none;dashed=1;html=1;dashPattern=1 3;strokeWidth=2;rounded=0;entryX=0;entryY=0.5;entryDx=0;entryDy=0;exitX=1;exitY=0.5;exitDx=0;exitDy=0;" edge="1" parent="1" target="FQmF5h1PEEif77fkFtKV-95" source="FQmF5h1PEEif77fkFtKV-78">
          <mxGeometry y="15" width="50" height="50" relative="1" as="geometry">
            <mxPoint x="491.25" y="555" as="sourcePoint" />
            <mxPoint x="585.25" y="490" as="targetPoint" />
            <mxPoint as="offset" />
          </mxGeometry>
        </mxCell>
        <mxCell id="FQmF5h1PEEif77fkFtKV-95" value="Ввести логин" style="ellipse;whiteSpace=wrap;html=1;" vertex="1" parent="1">
          <mxGeometry x="670" y="480" width="120" height="50" as="geometry" />
        </mxCell>
        <mxCell id="FQmF5h1PEEif77fkFtKV-96" value="&lt;span style=&quot;color: rgb(0, 0, 0); font-family: Helvetica; font-size: 11px; font-style: normal; font-variant-ligatures: normal; font-variant-caps: normal; font-weight: 400; letter-spacing: normal; orphans: 2; text-align: center; text-indent: 0px; text-transform: none; widows: 2; word-spacing: 0px; -webkit-text-stroke-width: 0px; background-color: rgb(255, 255, 255); text-decoration-thickness: initial; text-decoration-style: initial; text-decoration-color: initial; float: none; display: inline !important;&quot;&gt;&amp;lt;&amp;lt;include&amp;gt;&amp;gt;&lt;/span&gt;" style="endArrow=none;dashed=1;html=1;dashPattern=1 3;strokeWidth=2;rounded=0;entryX=0;entryY=0.5;entryDx=0;entryDy=0;exitX=1;exitY=0.5;exitDx=0;exitDy=0;" edge="1" parent="1" target="FQmF5h1PEEif77fkFtKV-97" source="FQmF5h1PEEif77fkFtKV-78">
          <mxGeometry x="0.2859" y="19" width="50" height="50" relative="1" as="geometry">
            <mxPoint x="478.75" y="555" as="sourcePoint" />
            <mxPoint x="588" y="560" as="targetPoint" />
            <mxPoint as="offset" />
          </mxGeometry>
        </mxCell>
        <mxCell id="FQmF5h1PEEif77fkFtKV-97" value="Ввести пароль" style="ellipse;whiteSpace=wrap;html=1;" vertex="1" parent="1">
          <mxGeometry x="670" y="560" width="120" height="50" as="geometry" />
        </mxCell>
        <mxCell id="FQmF5h1PEEif77fkFtKV-98" value="" style="endArrow=none;html=1;rounded=0;entryX=1;entryY=0.5;entryDx=0;entryDy=0;" edge="1" parent="1" target="FQmF5h1PEEif77fkFtKV-95">
          <mxGeometry width="50" height="50" relative="1" as="geometry">
            <mxPoint x="1290" y="623" as="sourcePoint" />
            <mxPoint x="754" y="375" as="targetPoint" />
            <Array as="points">
              <mxPoint x="1140" y="625" />
              <mxPoint x="860" y="505" />
            </Array>
          </mxGeometry>
        </mxCell>
        <mxCell id="FQmF5h1PEEif77fkFtKV-99" value="" style="endArrow=none;html=1;rounded=0;entryX=1;entryY=0.5;entryDx=0;entryDy=0;" edge="1" parent="1" target="FQmF5h1PEEif77fkFtKV-97">
          <mxGeometry width="50" height="50" relative="1" as="geometry">
            <mxPoint x="1290" y="623" as="sourcePoint" />
            <mxPoint x="754" y="455" as="targetPoint" />
            <Array as="points">
              <mxPoint x="1140" y="625" />
            </Array>
          </mxGeometry>
        </mxCell>
        <mxCell id="FQmF5h1PEEif77fkFtKV-100" value="&amp;lt;&amp;lt;include&amp;gt;&amp;gt;" style="endArrow=none;dashed=1;html=1;dashPattern=1 3;strokeWidth=2;rounded=0;entryX=0;entryY=0.5;entryDx=0;entryDy=0;exitX=1;exitY=0.5;exitDx=0;exitDy=0;" edge="1" parent="1" target="FQmF5h1PEEif77fkFtKV-101" source="FQmF5h1PEEif77fkFtKV-93">
          <mxGeometry x="0.1421" y="22" width="50" height="50" relative="1" as="geometry">
            <mxPoint x="827" y="355" as="sourcePoint" />
            <mxPoint x="921" y="330" as="targetPoint" />
            <mxPoint as="offset" />
          </mxGeometry>
        </mxCell>
        <mxCell id="FQmF5h1PEEif77fkFtKV-101" value="Ввести имя, фамилию, отчество" style="ellipse;whiteSpace=wrap;html=1;" vertex="1" parent="1">
          <mxGeometry x="974.75" y="270" width="120" height="50" as="geometry" />
        </mxCell>
        <mxCell id="FQmF5h1PEEif77fkFtKV-102" value="&lt;span style=&quot;color: rgb(0, 0, 0); font-family: Helvetica; font-size: 11px; font-style: normal; font-variant-ligatures: normal; font-variant-caps: normal; font-weight: 400; letter-spacing: normal; orphans: 2; text-align: center; text-indent: 0px; text-transform: none; widows: 2; word-spacing: 0px; -webkit-text-stroke-width: 0px; background-color: rgb(255, 255, 255); text-decoration-thickness: initial; text-decoration-style: initial; text-decoration-color: initial; float: none; display: inline !important;&quot;&gt;&amp;lt;&amp;lt;include&amp;gt;&amp;gt;&lt;/span&gt;" style="endArrow=none;dashed=1;html=1;dashPattern=1 3;strokeWidth=2;rounded=0;entryX=0;entryY=0.5;entryDx=0;entryDy=0;exitX=1;exitY=0.5;exitDx=0;exitDy=0;" edge="1" parent="1" target="FQmF5h1PEEif77fkFtKV-103" source="FQmF5h1PEEif77fkFtKV-93">
          <mxGeometry y="15" width="50" height="50" relative="1" as="geometry">
            <mxPoint x="827" y="355" as="sourcePoint" />
            <mxPoint x="936.25" y="400" as="targetPoint" />
            <mxPoint as="offset" />
          </mxGeometry>
        </mxCell>
        <mxCell id="FQmF5h1PEEif77fkFtKV-103" value="Ввести номер паспорт" style="ellipse;whiteSpace=wrap;html=1;" vertex="1" parent="1">
          <mxGeometry x="974.75" y="330" width="120" height="50" as="geometry" />
        </mxCell>
        <mxCell id="FQmF5h1PEEif77fkFtKV-104" value="&lt;span style=&quot;color: rgb(0, 0, 0); font-family: Helvetica; font-size: 11px; font-style: normal; font-variant-ligatures: normal; font-variant-caps: normal; font-weight: 400; letter-spacing: normal; orphans: 2; text-align: center; text-indent: 0px; text-transform: none; widows: 2; word-spacing: 0px; -webkit-text-stroke-width: 0px; background-color: rgb(255, 255, 255); text-decoration-thickness: initial; text-decoration-style: initial; text-decoration-color: initial; float: none; display: inline !important;&quot;&gt;&amp;lt;&amp;lt;include&amp;gt;&amp;gt;&lt;/span&gt;" style="endArrow=none;dashed=1;html=1;dashPattern=1 3;strokeWidth=2;rounded=0;entryX=0;entryY=0.5;entryDx=0;entryDy=0;exitX=1;exitY=0.5;exitDx=0;exitDy=0;" edge="1" parent="1" target="FQmF5h1PEEif77fkFtKV-105" source="FQmF5h1PEEif77fkFtKV-93">
          <mxGeometry x="0.3191" y="18" width="50" height="50" relative="1" as="geometry">
            <mxPoint x="827" y="355" as="sourcePoint" />
            <mxPoint x="939" y="470" as="targetPoint" />
            <mxPoint x="1" as="offset" />
          </mxGeometry>
        </mxCell>
        <mxCell id="FQmF5h1PEEif77fkFtKV-105" value="Ввести когда выдан" style="ellipse;whiteSpace=wrap;html=1;" vertex="1" parent="1">
          <mxGeometry x="974.75" y="390" width="120" height="50" as="geometry" />
        </mxCell>
        <mxCell id="FQmF5h1PEEif77fkFtKV-106" value="Ввести когда истекает" style="ellipse;whiteSpace=wrap;html=1;" vertex="1" parent="1">
          <mxGeometry x="974.75" y="450" width="120" height="50" as="geometry" />
        </mxCell>
        <mxCell id="FQmF5h1PEEif77fkFtKV-107" value="Ввести кем выдан" style="ellipse;whiteSpace=wrap;html=1;" vertex="1" parent="1">
          <mxGeometry x="974.75" y="510" width="120" height="50" as="geometry" />
        </mxCell>
        <mxCell id="FQmF5h1PEEif77fkFtKV-108" value="&lt;span style=&quot;color: rgb(0, 0, 0); font-family: Helvetica; font-size: 11px; font-style: normal; font-variant-ligatures: normal; font-variant-caps: normal; font-weight: 400; letter-spacing: normal; orphans: 2; text-align: center; text-indent: 0px; text-transform: none; widows: 2; word-spacing: 0px; -webkit-text-stroke-width: 0px; background-color: rgb(255, 255, 255); text-decoration-thickness: initial; text-decoration-style: initial; text-decoration-color: initial; float: none; display: inline !important;&quot;&gt;&amp;lt;&amp;lt;include&amp;gt;&amp;gt;&lt;/span&gt;" style="endArrow=none;dashed=1;html=1;dashPattern=1 3;strokeWidth=2;rounded=0;entryX=0;entryY=0.5;entryDx=0;entryDy=0;exitX=1;exitY=0.5;exitDx=0;exitDy=0;" edge="1" parent="1" source="FQmF5h1PEEif77fkFtKV-93" target="FQmF5h1PEEif77fkFtKV-106">
          <mxGeometry y="15" width="50" height="50" relative="1" as="geometry">
            <mxPoint x="740" y="360" as="sourcePoint" />
            <mxPoint x="981" y="495" as="targetPoint" />
            <mxPoint as="offset" />
          </mxGeometry>
        </mxCell>
        <mxCell id="FQmF5h1PEEif77fkFtKV-109" value="&lt;span style=&quot;color: rgb(0, 0, 0); font-family: Helvetica; font-size: 11px; font-style: normal; font-variant-ligatures: normal; font-variant-caps: normal; font-weight: 400; letter-spacing: normal; orphans: 2; text-align: center; text-indent: 0px; text-transform: none; widows: 2; word-spacing: 0px; -webkit-text-stroke-width: 0px; background-color: rgb(255, 255, 255); text-decoration-thickness: initial; text-decoration-style: initial; text-decoration-color: initial; float: none; display: inline !important;&quot;&gt;&amp;lt;&amp;lt;include&amp;gt;&amp;gt;&lt;/span&gt;" style="endArrow=none;dashed=1;html=1;dashPattern=1 3;strokeWidth=2;rounded=0;entryX=0;entryY=0.5;entryDx=0;entryDy=0;exitX=1;exitY=0.5;exitDx=0;exitDy=0;" edge="1" parent="1" source="FQmF5h1PEEif77fkFtKV-93" target="FQmF5h1PEEif77fkFtKV-107">
          <mxGeometry x="0.3191" y="18" width="50" height="50" relative="1" as="geometry">
            <mxPoint x="750" y="505" as="sourcePoint" />
            <mxPoint x="981" y="555" as="targetPoint" />
            <mxPoint x="1" as="offset" />
          </mxGeometry>
        </mxCell>
        <mxCell id="FQmF5h1PEEif77fkFtKV-110" value="" style="endArrow=none;html=1;rounded=0;exitX=0.5;exitY=0.5;exitDx=0;exitDy=0;entryX=1;entryY=0.5;entryDx=0;entryDy=0;exitPerimeter=0;" edge="1" parent="1" source="FQmF5h1PEEif77fkFtKV-79" target="FQmF5h1PEEif77fkFtKV-107">
          <mxGeometry width="50" height="50" relative="1" as="geometry">
            <mxPoint x="1350" y="835" as="sourcePoint" />
            <mxPoint x="754" y="455" as="targetPoint" />
            <Array as="points">
              <mxPoint x="1290" y="623" />
              <mxPoint x="1290" y="480" />
              <mxPoint x="1150" y="535" />
            </Array>
          </mxGeometry>
        </mxCell>
        <mxCell id="FQmF5h1PEEif77fkFtKV-111" value="" style="endArrow=none;html=1;rounded=0;exitX=0.5;exitY=0.5;exitDx=0;exitDy=0;entryX=1;entryY=0.5;entryDx=0;entryDy=0;exitPerimeter=0;" edge="1" parent="1" source="FQmF5h1PEEif77fkFtKV-79" target="FQmF5h1PEEif77fkFtKV-106">
          <mxGeometry width="50" height="50" relative="1" as="geometry">
            <mxPoint x="1350" y="835" as="sourcePoint" />
            <mxPoint x="1105" y="570" as="targetPoint" />
            <Array as="points">
              <mxPoint x="1290" y="623" />
              <mxPoint x="1290" y="480" />
            </Array>
          </mxGeometry>
        </mxCell>
        <mxCell id="FQmF5h1PEEif77fkFtKV-112" value="" style="endArrow=none;html=1;rounded=0;exitX=0.5;exitY=0.5;exitDx=0;exitDy=0;entryX=1;entryY=0.5;entryDx=0;entryDy=0;exitPerimeter=0;" edge="1" parent="1" source="FQmF5h1PEEif77fkFtKV-79" target="FQmF5h1PEEif77fkFtKV-105">
          <mxGeometry width="50" height="50" relative="1" as="geometry">
            <mxPoint x="1350" y="835" as="sourcePoint" />
            <mxPoint x="1105" y="505" as="targetPoint" />
            <Array as="points">
              <mxPoint x="1290" y="623" />
              <mxPoint x="1290" y="480" />
              <mxPoint x="1150" y="415" />
            </Array>
          </mxGeometry>
        </mxCell>
        <mxCell id="FQmF5h1PEEif77fkFtKV-113" value="" style="endArrow=none;html=1;rounded=0;exitX=0.5;exitY=0.5;exitDx=0;exitDy=0;entryX=1;entryY=0.5;entryDx=0;entryDy=0;exitPerimeter=0;" edge="1" parent="1" source="FQmF5h1PEEif77fkFtKV-79" target="FQmF5h1PEEif77fkFtKV-103">
          <mxGeometry width="50" height="50" relative="1" as="geometry">
            <mxPoint x="1350" y="835" as="sourcePoint" />
            <mxPoint x="1105" y="425" as="targetPoint" />
            <Array as="points">
              <mxPoint x="1290" y="623" />
              <mxPoint x="1290" y="480" />
              <mxPoint x="1160" y="355" />
            </Array>
          </mxGeometry>
        </mxCell>
        <mxCell id="FQmF5h1PEEif77fkFtKV-114" value="" style="endArrow=none;html=1;rounded=0;exitX=0.5;exitY=0.5;exitDx=0;exitDy=0;entryX=1;entryY=0.5;entryDx=0;entryDy=0;exitPerimeter=0;" edge="1" parent="1" source="FQmF5h1PEEif77fkFtKV-79" target="FQmF5h1PEEif77fkFtKV-101">
          <mxGeometry width="50" height="50" relative="1" as="geometry">
            <mxPoint x="1350" y="760" as="sourcePoint" />
            <mxPoint x="1105" y="290" as="targetPoint" />
            <Array as="points">
              <mxPoint x="1290" y="623" />
              <mxPoint x="1290" y="480" />
              <mxPoint x="1160" y="295" />
            </Array>
          </mxGeometry>
        </mxCell>
        <mxCell id="FQmF5h1PEEif77fkFtKV-116" value="Подтвердить регистрацию" style="ellipse;whiteSpace=wrap;html=1;" vertex="1" parent="1">
          <mxGeometry x="768.13" y="630" width="120" height="40" as="geometry" />
        </mxCell>
        <mxCell id="FQmF5h1PEEif77fkFtKV-117" value="" style="endArrow=none;html=1;rounded=0;exitX=0.5;exitY=0.5;exitDx=0;exitDy=0;entryX=1;entryY=0.5;entryDx=0;entryDy=0;exitPerimeter=0;" edge="1" parent="1" source="FQmF5h1PEEif77fkFtKV-79" target="FQmF5h1PEEif77fkFtKV-116">
          <mxGeometry width="50" height="50" relative="1" as="geometry">
            <mxPoint x="1450" y="755" as="sourcePoint" />
            <mxPoint x="1746" y="440" as="targetPoint" />
            <Array as="points" />
          </mxGeometry>
        </mxCell>
        <mxCell id="FQmF5h1PEEif77fkFtKV-119" value="Снять деньги со банковского&amp;nbsp;счета" style="ellipse;whiteSpace=wrap;html=1;" vertex="1" parent="1">
          <mxGeometry x="750.0000000000001" y="996" width="138.13" height="60" as="geometry" />
        </mxCell>
        <mxCell id="FQmF5h1PEEif77fkFtKV-121" value="Закрыть&lt;br style=&quot;border-color: var(--border-color);&quot;&gt;банковский счет" style="ellipse;whiteSpace=wrap;html=1;" vertex="1" parent="1">
          <mxGeometry x="750.0000000000001" y="848" width="138.13" height="60" as="geometry" />
        </mxCell>
        <mxCell id="FQmF5h1PEEif77fkFtKV-122" value="Проверить&lt;br style=&quot;border-color: var(--border-color);&quot;&gt;деньги на счете" style="ellipse;whiteSpace=wrap;html=1;" vertex="1" parent="1">
          <mxGeometry x="750.0000000000001" y="922" width="138.13" height="60" as="geometry" />
        </mxCell>
        <mxCell id="FQmF5h1PEEif77fkFtKV-123" value="Положить деньги на банковский счет" style="ellipse;whiteSpace=wrap;html=1;" vertex="1" parent="1">
          <mxGeometry x="750.0000000000001" y="700" width="138.13" height="60" as="geometry" />
        </mxCell>
        <mxCell id="FQmF5h1PEEif77fkFtKV-124" value="Вывести информацию &lt;br&gt;о всех счетах" style="ellipse;whiteSpace=wrap;html=1;" vertex="1" parent="1">
          <mxGeometry x="750.0000000000001" y="774" width="138.13" height="60" as="geometry" />
        </mxCell>
        <mxCell id="FQmF5h1PEEif77fkFtKV-125" value="&lt;span style=&quot;color: rgb(0, 0, 0); font-family: Helvetica; font-size: 11px; font-style: normal; font-variant-ligatures: normal; font-variant-caps: normal; font-weight: 400; letter-spacing: normal; orphans: 2; text-align: center; text-indent: 0px; text-transform: none; widows: 2; word-spacing: 0px; -webkit-text-stroke-width: 0px; background-color: rgb(255, 255, 255); text-decoration-thickness: initial; text-decoration-style: initial; text-decoration-color: initial; float: none; display: inline !important;&quot;&gt;&amp;lt;&amp;lt;extend&amp;gt;&amp;gt;&lt;/span&gt;" style="endArrow=none;dashed=1;html=1;dashPattern=1 3;strokeWidth=2;rounded=0;entryX=1;entryY=0.5;entryDx=0;entryDy=0;exitX=0;exitY=0.5;exitDx=0;exitDy=0;" edge="1" parent="1" source="FQmF5h1PEEif77fkFtKV-123" target="FQmF5h1PEEif77fkFtKV-77">
          <mxGeometry x="-0.3647" y="-10" width="50" height="50" relative="1" as="geometry">
            <mxPoint x="754" y="820" as="sourcePoint" />
            <mxPoint x="985" y="990" as="targetPoint" />
            <mxPoint as="offset" />
            <Array as="points">
              <mxPoint x="540" y="730" />
            </Array>
          </mxGeometry>
        </mxCell>
        <mxCell id="FQmF5h1PEEif77fkFtKV-129" value="&lt;span style=&quot;color: rgb(0, 0, 0); font-family: Helvetica; font-size: 11px; font-style: normal; font-variant-ligatures: normal; font-variant-caps: normal; font-weight: 400; letter-spacing: normal; orphans: 2; text-align: center; text-indent: 0px; text-transform: none; widows: 2; word-spacing: 0px; -webkit-text-stroke-width: 0px; background-color: rgb(255, 255, 255); text-decoration-thickness: initial; text-decoration-style: initial; text-decoration-color: initial; float: none; display: inline !important;&quot;&gt;&amp;lt;&amp;lt;extend&amp;gt;&amp;gt;&lt;/span&gt;" style="endArrow=none;dashed=1;html=1;dashPattern=1 3;strokeWidth=2;rounded=0;entryX=1;entryY=0.5;entryDx=0;entryDy=0;exitX=0;exitY=0.5;exitDx=0;exitDy=0;" edge="1" parent="1" source="FQmF5h1PEEif77fkFtKV-124" target="FQmF5h1PEEif77fkFtKV-77">
          <mxGeometry x="-0.2747" y="-14" width="50" height="50" relative="1" as="geometry">
            <mxPoint x="760" y="740" as="sourcePoint" />
            <mxPoint x="670" y="920" as="targetPoint" />
            <mxPoint as="offset" />
            <Array as="points">
              <mxPoint x="560" y="804" />
            </Array>
          </mxGeometry>
        </mxCell>
        <mxCell id="FQmF5h1PEEif77fkFtKV-130" value="&lt;span style=&quot;color: rgb(0, 0, 0); font-family: Helvetica; font-size: 11px; font-style: normal; font-variant-ligatures: normal; font-variant-caps: normal; font-weight: 400; letter-spacing: normal; orphans: 2; text-align: center; text-indent: 0px; text-transform: none; widows: 2; word-spacing: 0px; -webkit-text-stroke-width: 0px; background-color: rgb(255, 255, 255); text-decoration-thickness: initial; text-decoration-style: initial; text-decoration-color: initial; float: none; display: inline !important;&quot;&gt;&amp;lt;&amp;lt;extend&amp;gt;&amp;gt;&lt;/span&gt;" style="endArrow=none;dashed=1;html=1;dashPattern=1 3;strokeWidth=2;rounded=0;entryX=1;entryY=0.5;entryDx=0;entryDy=0;exitX=0;exitY=0.5;exitDx=0;exitDy=0;" edge="1" parent="1" source="FQmF5h1PEEif77fkFtKV-121" target="FQmF5h1PEEif77fkFtKV-77">
          <mxGeometry x="-0.2747" y="-14" width="50" height="50" relative="1" as="geometry">
            <mxPoint x="760" y="814" as="sourcePoint" />
            <mxPoint x="490" y="930" as="targetPoint" />
            <mxPoint as="offset" />
            <Array as="points">
              <mxPoint x="580" y="880" />
            </Array>
          </mxGeometry>
        </mxCell>
        <mxCell id="FQmF5h1PEEif77fkFtKV-131" value="&lt;span style=&quot;color: rgb(0, 0, 0); font-family: Helvetica; font-size: 11px; font-style: normal; font-variant-ligatures: normal; font-variant-caps: normal; font-weight: 400; letter-spacing: normal; orphans: 2; text-align: center; text-indent: 0px; text-transform: none; widows: 2; word-spacing: 0px; -webkit-text-stroke-width: 0px; background-color: rgb(255, 255, 255); text-decoration-thickness: initial; text-decoration-style: initial; text-decoration-color: initial; float: none; display: inline !important;&quot;&gt;&amp;lt;&amp;lt;extend&amp;gt;&amp;gt;&lt;/span&gt;" style="endArrow=none;dashed=1;html=1;dashPattern=1 3;strokeWidth=2;rounded=0;entryX=1;entryY=0.5;entryDx=0;entryDy=0;exitX=0;exitY=0.5;exitDx=0;exitDy=0;" edge="1" parent="1" source="FQmF5h1PEEif77fkFtKV-122" target="FQmF5h1PEEif77fkFtKV-77">
          <mxGeometry x="-0.2747" y="-14" width="50" height="50" relative="1" as="geometry">
            <mxPoint x="770" y="824" as="sourcePoint" />
            <mxPoint x="500" y="940" as="targetPoint" />
            <mxPoint as="offset" />
            <Array as="points">
              <mxPoint x="580" y="952" />
            </Array>
          </mxGeometry>
        </mxCell>
        <mxCell id="FQmF5h1PEEif77fkFtKV-132" value="&lt;span style=&quot;color: rgb(0, 0, 0); font-family: Helvetica; font-size: 11px; font-style: normal; font-variant-ligatures: normal; font-variant-caps: normal; font-weight: 400; letter-spacing: normal; orphans: 2; text-align: center; text-indent: 0px; text-transform: none; widows: 2; word-spacing: 0px; -webkit-text-stroke-width: 0px; background-color: rgb(255, 255, 255); text-decoration-thickness: initial; text-decoration-style: initial; text-decoration-color: initial; float: none; display: inline !important;&quot;&gt;&amp;lt;&amp;lt;extend&amp;gt;&amp;gt;&lt;/span&gt;" style="endArrow=none;dashed=1;html=1;dashPattern=1 3;strokeWidth=2;rounded=0;entryX=1;entryY=0.5;entryDx=0;entryDy=0;exitX=0;exitY=0.5;exitDx=0;exitDy=0;" edge="1" parent="1" source="FQmF5h1PEEif77fkFtKV-119" target="FQmF5h1PEEif77fkFtKV-77">
          <mxGeometry x="-0.2747" y="-14" width="50" height="50" relative="1" as="geometry">
            <mxPoint x="780" y="834" as="sourcePoint" />
            <mxPoint x="510" y="950" as="targetPoint" />
            <mxPoint as="offset" />
            <Array as="points">
              <mxPoint x="590" y="1026" />
            </Array>
          </mxGeometry>
        </mxCell>
        <mxCell id="FQmF5h1PEEif77fkFtKV-133" value="&lt;span style=&quot;color: rgb(0, 0, 0); font-family: Helvetica; font-size: 11px; font-style: normal; font-variant-ligatures: normal; font-variant-caps: normal; font-weight: 400; letter-spacing: normal; orphans: 2; text-align: center; text-indent: 0px; text-transform: none; widows: 2; word-spacing: 0px; -webkit-text-stroke-width: 0px; background-color: rgb(255, 255, 255); text-decoration-thickness: initial; text-decoration-style: initial; text-decoration-color: initial; float: none; display: inline !important;&quot;&gt;&amp;lt;&amp;lt;extend&amp;gt;&amp;gt;&lt;/span&gt;" style="endArrow=none;dashed=1;html=1;dashPattern=1 3;strokeWidth=2;rounded=0;entryX=1;entryY=0.5;entryDx=0;entryDy=0;exitX=0;exitY=0.5;exitDx=0;exitDy=0;" edge="1" parent="1" source="FQmF5h1PEEif77fkFtKV-21">
          <mxGeometry x="-0.4326" y="-20" width="50" height="50" relative="1" as="geometry">
            <mxPoint x="760" y="1036" as="sourcePoint" />
            <mxPoint x="490" y="930" as="targetPoint" />
            <mxPoint as="offset" />
            <Array as="points">
              <mxPoint x="600" y="1100" />
            </Array>
          </mxGeometry>
        </mxCell>
        <mxCell id="FQmF5h1PEEif77fkFtKV-134" value="" style="endArrow=none;html=1;rounded=0;entryX=1;entryY=0.5;entryDx=0;entryDy=0;exitX=0.5;exitY=0.5;exitDx=0;exitDy=0;exitPerimeter=0;" edge="1" parent="1" source="FQmF5h1PEEif77fkFtKV-79" target="FQmF5h1PEEif77fkFtKV-124">
          <mxGeometry width="50" height="50" relative="1" as="geometry">
            <mxPoint x="1240" y="804" as="sourcePoint" />
            <mxPoint x="1105" y="670" as="targetPoint" />
            <Array as="points">
              <mxPoint x="1240" y="800" />
            </Array>
          </mxGeometry>
        </mxCell>
        <mxCell id="FQmF5h1PEEif77fkFtKV-136" value="Ввести реквезиты целевого счета" style="ellipse;whiteSpace=wrap;html=1;" vertex="1" parent="1">
          <mxGeometry x="1120.87" y="1074.5" width="120" height="50" as="geometry" />
        </mxCell>
        <mxCell id="FQmF5h1PEEif77fkFtKV-137" value="&lt;span style=&quot;color: rgb(0, 0, 0); font-family: Helvetica; font-size: 11px; font-style: normal; font-variant-ligatures: normal; font-variant-caps: normal; font-weight: 400; letter-spacing: normal; orphans: 2; text-align: center; text-indent: 0px; text-transform: none; widows: 2; word-spacing: 0px; -webkit-text-stroke-width: 0px; background-color: rgb(255, 255, 255); text-decoration-thickness: initial; text-decoration-style: initial; text-decoration-color: initial; float: none; display: inline !important;&quot;&gt;&amp;lt;&amp;lt;include&amp;gt;&amp;gt;&lt;/span&gt;" style="endArrow=none;dashed=1;html=1;dashPattern=1 3;strokeWidth=2;rounded=0;entryX=0;entryY=0.5;entryDx=0;entryDy=0;exitX=1;exitY=0.5;exitDx=0;exitDy=0;" edge="1" parent="1" target="FQmF5h1PEEif77fkFtKV-136">
          <mxGeometry x="0.5058" y="15" width="50" height="50" relative="1" as="geometry">
            <mxPoint x="890" y="1100" as="sourcePoint" />
            <mxPoint x="1127" y="1290" as="targetPoint" />
            <mxPoint as="offset" />
            <Array as="points" />
          </mxGeometry>
        </mxCell>
        <mxCell id="FQmF5h1PEEif77fkFtKV-140" value="Ввести сумму перевода" style="ellipse;whiteSpace=wrap;html=1;" vertex="1" parent="1">
          <mxGeometry x="1120.87" y="1149.5" width="120" height="50" as="geometry" />
        </mxCell>
        <mxCell id="FQmF5h1PEEif77fkFtKV-141" value="&lt;span style=&quot;color: rgb(0, 0, 0); font-family: Helvetica; font-size: 11px; font-style: normal; font-variant-ligatures: normal; font-variant-caps: normal; font-weight: 400; letter-spacing: normal; orphans: 2; text-align: center; text-indent: 0px; text-transform: none; widows: 2; word-spacing: 0px; -webkit-text-stroke-width: 0px; background-color: rgb(255, 255, 255); text-decoration-thickness: initial; text-decoration-style: initial; text-decoration-color: initial; float: none; display: inline !important;&quot;&gt;&amp;lt;&amp;lt;include&amp;gt;&amp;gt;&lt;/span&gt;" style="endArrow=none;dashed=1;html=1;dashPattern=1 3;strokeWidth=2;rounded=0;entryX=0;entryY=0.5;entryDx=0;entryDy=0;exitX=1;exitY=0.5;exitDx=0;exitDy=0;" edge="1" parent="1" target="FQmF5h1PEEif77fkFtKV-140" source="FQmF5h1PEEif77fkFtKV-21">
          <mxGeometry x="0.6489" y="20" width="50" height="50" relative="1" as="geometry">
            <mxPoint x="939.9999999999992" y="1090.0000000000002" as="sourcePoint" />
            <mxPoint x="1188.87" y="1355" as="targetPoint" />
            <mxPoint as="offset" />
            <Array as="points">
              <mxPoint x="950" y="1175" />
            </Array>
          </mxGeometry>
        </mxCell>
        <mxCell id="FQmF5h1PEEif77fkFtKV-142" value="Внести сумму для снятия" style="ellipse;whiteSpace=wrap;html=1;" vertex="1" parent="1">
          <mxGeometry x="1059" y="1000.5" width="120" height="50" as="geometry" />
        </mxCell>
        <mxCell id="FQmF5h1PEEif77fkFtKV-143" value="&lt;span style=&quot;color: rgb(0, 0, 0); font-family: Helvetica; font-size: 11px; font-style: normal; font-variant-ligatures: normal; font-variant-caps: normal; font-weight: 400; letter-spacing: normal; orphans: 2; text-align: center; text-indent: 0px; text-transform: none; widows: 2; word-spacing: 0px; -webkit-text-stroke-width: 0px; background-color: rgb(255, 255, 255); text-decoration-thickness: initial; text-decoration-style: initial; text-decoration-color: initial; float: none; display: inline !important;&quot;&gt;&amp;lt;&amp;lt;include&amp;gt;&amp;gt;&lt;/span&gt;" style="endArrow=none;dashed=1;html=1;dashPattern=1 3;strokeWidth=2;rounded=0;entryX=0;entryY=0.5;entryDx=0;entryDy=0;exitX=1;exitY=0.5;exitDx=0;exitDy=0;" edge="1" parent="1" target="FQmF5h1PEEif77fkFtKV-142" source="FQmF5h1PEEif77fkFtKV-119">
          <mxGeometry x="0.011" y="18" width="50" height="50" relative="1" as="geometry">
            <mxPoint x="740.0000000000008" y="980" as="sourcePoint" />
            <mxPoint x="1116.67" y="1114" as="targetPoint" />
            <mxPoint as="offset" />
            <Array as="points" />
          </mxGeometry>
        </mxCell>
        <mxCell id="FQmF5h1PEEif77fkFtKV-144" value="Внести сумму для девозита" style="ellipse;whiteSpace=wrap;html=1;" vertex="1" parent="1">
          <mxGeometry x="974.75" y="705" width="120" height="50" as="geometry" />
        </mxCell>
        <mxCell id="FQmF5h1PEEif77fkFtKV-145" value="&lt;span style=&quot;color: rgb(0, 0, 0); font-family: Helvetica; font-size: 11px; font-style: normal; font-variant-ligatures: normal; font-variant-caps: normal; font-weight: 400; letter-spacing: normal; orphans: 2; text-align: center; text-indent: 0px; text-transform: none; widows: 2; word-spacing: 0px; -webkit-text-stroke-width: 0px; background-color: rgb(255, 255, 255); text-decoration-thickness: initial; text-decoration-style: initial; text-decoration-color: initial; float: none; display: inline !important;&quot;&gt;&amp;lt;&amp;lt;include&amp;gt;&amp;gt;&lt;/span&gt;" style="endArrow=none;dashed=1;html=1;dashPattern=1 3;strokeWidth=2;rounded=0;entryX=0;entryY=0.5;entryDx=0;entryDy=0;exitX=1;exitY=0.5;exitDx=0;exitDy=0;" edge="1" parent="1" target="FQmF5h1PEEif77fkFtKV-144" source="FQmF5h1PEEif77fkFtKV-123">
          <mxGeometry x="0.011" y="18" width="50" height="50" relative="1" as="geometry">
            <mxPoint x="888.1299999999969" y="735" as="sourcePoint" />
            <mxPoint x="1216.51" y="823" as="targetPoint" />
            <mxPoint as="offset" />
            <Array as="points" />
          </mxGeometry>
        </mxCell>
        <mxCell id="FQmF5h1PEEif77fkFtKV-149" value="" style="endArrow=none;html=1;rounded=0;exitX=1;exitY=0.5;exitDx=0;exitDy=0;entryX=0.5;entryY=0.5;entryDx=0;entryDy=0;entryPerimeter=0;" edge="1" parent="1" source="FQmF5h1PEEif77fkFtKV-144" target="FQmF5h1PEEif77fkFtKV-79">
          <mxGeometry width="50" height="50" relative="1" as="geometry">
            <mxPoint x="1130" y="860" as="sourcePoint" />
            <mxPoint x="1276" y="860" as="targetPoint" />
            <Array as="points" />
          </mxGeometry>
        </mxCell>
        <mxCell id="FQmF5h1PEEif77fkFtKV-150" value="" style="endArrow=none;html=1;rounded=0;exitX=1;exitY=0.5;exitDx=0;exitDy=0;entryX=0.5;entryY=0.5;entryDx=0;entryDy=0;entryPerimeter=0;" edge="1" parent="1" source="FQmF5h1PEEif77fkFtKV-121" target="FQmF5h1PEEif77fkFtKV-79">
          <mxGeometry width="50" height="50" relative="1" as="geometry">
            <mxPoint x="1450" y="854" as="sourcePoint" />
            <mxPoint x="1320" y="878" as="targetPoint" />
            <Array as="points">
              <mxPoint x="1170" y="878" />
            </Array>
          </mxGeometry>
        </mxCell>
        <mxCell id="FQmF5h1PEEif77fkFtKV-151" value="" style="endArrow=none;html=1;rounded=0;exitX=1;exitY=0.5;exitDx=0;exitDy=0;entryX=0.5;entryY=0.5;entryDx=0;entryDy=0;entryPerimeter=0;" edge="1" parent="1" source="FQmF5h1PEEif77fkFtKV-142" target="FQmF5h1PEEif77fkFtKV-79">
          <mxGeometry width="50" height="50" relative="1" as="geometry">
            <mxPoint x="1460" y="864" as="sourcePoint" />
            <mxPoint x="1606" y="864" as="targetPoint" />
            <Array as="points">
              <mxPoint x="1220" y="1026" />
            </Array>
          </mxGeometry>
        </mxCell>
        <mxCell id="FQmF5h1PEEif77fkFtKV-152" value="" style="endArrow=none;html=1;rounded=0;exitX=1;exitY=0.5;exitDx=0;exitDy=0;entryX=0.5;entryY=0.5;entryDx=0;entryDy=0;entryPerimeter=0;" edge="1" parent="1" source="FQmF5h1PEEif77fkFtKV-136" target="FQmF5h1PEEif77fkFtKV-79">
          <mxGeometry width="50" height="50" relative="1" as="geometry">
            <mxPoint x="1470" y="874" as="sourcePoint" />
            <mxPoint x="1616" y="874" as="targetPoint" />
            <Array as="points" />
          </mxGeometry>
        </mxCell>
        <mxCell id="FQmF5h1PEEif77fkFtKV-153" value="" style="endArrow=none;html=1;rounded=0;exitX=1;exitY=0.5;exitDx=0;exitDy=0;entryX=0.5;entryY=0.5;entryDx=0;entryDy=0;entryPerimeter=0;" edge="1" parent="1" source="FQmF5h1PEEif77fkFtKV-140" target="FQmF5h1PEEif77fkFtKV-79">
          <mxGeometry width="50" height="50" relative="1" as="geometry">
            <mxPoint x="1480" y="884" as="sourcePoint" />
            <mxPoint x="1626" y="884" as="targetPoint" />
            <Array as="points" />
          </mxGeometry>
        </mxCell>
        <mxCell id="FQmF5h1PEEif77fkFtKV-155" value="" style="endArrow=none;html=1;rounded=0;entryX=0;entryY=0.5;entryDx=0;entryDy=0;exitX=0.5;exitY=0.5;exitDx=0;exitDy=0;exitPerimeter=0;" edge="1" parent="1" source="FQmF5h1PEEif77fkFtKV-76" target="FQmF5h1PEEif77fkFtKV-116">
          <mxGeometry width="50" height="50" relative="1" as="geometry">
            <mxPoint x="190" y="670" as="sourcePoint" />
            <mxPoint x="336" y="455" as="targetPoint" />
            <Array as="points" />
          </mxGeometry>
        </mxCell>
        <mxCell id="FQmF5h1PEEif77fkFtKV-156" value="" style="endArrow=none;html=1;rounded=0;exitX=1;exitY=0.5;exitDx=0;exitDy=0;entryX=0.5;entryY=0.5;entryDx=0;entryDy=0;entryPerimeter=0;" edge="1" parent="1" source="FQmF5h1PEEif77fkFtKV-122" target="FQmF5h1PEEif77fkFtKV-79">
          <mxGeometry width="50" height="50" relative="1" as="geometry">
            <mxPoint x="898" y="888" as="sourcePoint" />
            <mxPoint x="1570" y="805" as="targetPoint" />
            <Array as="points">
              <mxPoint x="1200" y="950" />
            </Array>
          </mxGeometry>
        </mxCell>
        <mxCell id="FQmF5h1PEEif77fkFtKV-160" value="Вывести информацию&lt;br&gt;&amp;nbsp;о всех транзакциях" style="ellipse;whiteSpace=wrap;html=1;" vertex="1" parent="1">
          <mxGeometry x="750.0000000000001" y="1210" width="138.13" height="60" as="geometry" />
        </mxCell>
        <mxCell id="FQmF5h1PEEif77fkFtKV-161" value="&lt;span style=&quot;color: rgb(0, 0, 0); font-family: Helvetica; font-size: 11px; font-style: normal; font-variant-ligatures: normal; font-variant-caps: normal; font-weight: 400; letter-spacing: normal; orphans: 2; text-align: center; text-indent: 0px; text-transform: none; widows: 2; word-spacing: 0px; -webkit-text-stroke-width: 0px; background-color: rgb(255, 255, 255); text-decoration-thickness: initial; text-decoration-style: initial; text-decoration-color: initial; float: none; display: inline !important;&quot;&gt;&amp;lt;&amp;lt;extend&amp;gt;&amp;gt;&lt;/span&gt;" style="endArrow=none;dashed=1;html=1;dashPattern=1 3;strokeWidth=2;rounded=0;exitX=0;exitY=0.5;exitDx=0;exitDy=0;entryX=1;entryY=0.5;entryDx=0;entryDy=0;" edge="1" parent="1" source="FQmF5h1PEEif77fkFtKV-160" target="FQmF5h1PEEif77fkFtKV-77">
          <mxGeometry x="-0.634" y="-20" width="50" height="50" relative="1" as="geometry">
            <mxPoint x="760" y="1110" as="sourcePoint" />
            <mxPoint x="480" y="920" as="targetPoint" />
            <mxPoint as="offset" />
            <Array as="points">
              <mxPoint x="600" y="1240" />
            </Array>
          </mxGeometry>
        </mxCell>
        <mxCell id="FQmF5h1PEEif77fkFtKV-162" value="" style="endArrow=none;html=1;rounded=0;entryX=1;entryY=0.5;entryDx=0;entryDy=0;exitX=0.5;exitY=0.5;exitDx=0;exitDy=0;exitPerimeter=0;" edge="1" parent="1" source="FQmF5h1PEEif77fkFtKV-79" target="FQmF5h1PEEif77fkFtKV-160">
          <mxGeometry width="50" height="50" relative="1" as="geometry">
            <mxPoint x="1560" y="800" as="sourcePoint" />
            <mxPoint x="898" y="814" as="targetPoint" />
            <Array as="points">
              <mxPoint x="1240" y="1240" />
            </Array>
          </mxGeometry>
        </mxCell>
      </root>
    </mxGraphModel>
  </diagram>
</mxfile>
